#!OML:ASF I:\Actors\actors\Patient Classification 2\Patient 1\Session 1\actor1.ASF
:FULLY-SPECIFIED
:DEGREES
605
root -0.779795 17.8189 6.18875 -4.09422 -1.59842 -3.79005
lowerback 14.0757 -0.0543163 5.4459
upperback 1.65855 0.937881 2.62715
thorax -6.10017 0.357023 -0.474743
lowerneck -5.10895 -6.44248 -5.16506
upperneck 12.2328 -7.54999 -5.29406
head 4.51362 -4.23943 -1.20231
rclavicle -2.28602e-015 -2.3059e-014
rhumerus -19.5603 -11.7666 -74.4435
rradius 133.285
rwrist -43.0716
rhand -15.8773 -39.7026
rfingers 7.12502
rthumb 10.3185 -69.4294
lclavicle -2.28602e-015 -2.3059e-014
lhumerus -53.5553 -19.4518 107.897
lradius 102.578
lwrist 21.8166
lhand -8.10691 -15.6566
lfingers 7.12502
lthumb 17.806 13.5482
rfemur 26.443 -0.330173 19.047
rtibia -21.9044
rfoot -6.57674 -16.5878
rtoes -2.44247
lfemur 28.9587 2.55566 -12.7954
ltibia -30.2354
lfoot 6.61757 15.3838
ltoes -17.504
606
root -0.791211 17.8178 6.1822 -4.08954 -1.2994 -3.63516
lowerback 14.1421 -0.0963485 5.76671
upperback 1.63296 0.949174 2.78116
thorax -6.16169 0.354926 -0.493829
lowerneck -5.39156 -6.30981 -4.37713
upperneck 11.1333 -7.59231 -4.2649
head 4.67695 -4.13855 -1.11538
rclavicle 5.76476e-015 2.3059e-014
rhumerus -19.586 -11.7205 -74.4101
rradius 133.281
rwrist -43.116
rhand -15.8187 -39.8658
rfingers 7.12502
rthumb 10.375 -69.5898
lclavicle 5.76476e-015 2.3059e-014
lhumerus -53.3798 -19.5239 107.801
lradius 102.389
lwrist 21.5623
lhand -8.25126 -15.4777
lfingers 7.12502
lthumb 17.6671 13.7396
rfemur 26.5427 -0.379822 18.9395
rtibia -22.0719
rfoot -6.67473 -16.8016
rtoes -2.41753
lfemur 28.7977 2.63993 -12.884
ltibia -30.1434
lfoot 6.67092 15.041
ltoes -17.7316
607
root -0.802314 17.821 6.17598 -4.09481 -0.974629 -3.44566
lowerback 14.2101 -0.143661 6.0213
upperback 1.57987 0.947472 2.95778
thorax -6.25585 0.347081 -0.448868
lowerneck -5.66057 -6.25732 -3.70296
upperneck 10.6404 -7.69127 -3.35312
head 4.55638 -4.10623 -0.923937
rclavicle 1.39149e-015 -2.8625e-014
rhumerus -19.8151 -11.6386 -74.3432
rradius 133.248
rwrist -43.2715
rhand -15.8581 -40.0632
rfingers 7.12502
rthumb 10.3371 -69.7891
lclavicle 1.39149e-015 -2.8625e-014
lhumerus -53.2689 -19.4151 107.823
lradius 102.149
lwrist 21.3062
lhand -8.36396 -15.3389
lfingers 7.12502
lthumb 17.5586 13.8882
rfemur 26.6352 -0.445311 18.7791
rtibia -22.1905
rfoot -6.70793 -17.0358
rtoes -2.51037
lfemur 28.6178 2.70615 -13.0141
ltibia -29.9992
lfoot 6.6851 14.7443
ltoes -17.7605
608
root -0.81167 17.8266 6.17056 -4.16 -0.673937 -3.28154
lowerback 14.3321 -0.189012 6.26881
upperback 1.50755 0.957916 3.18645
thorax -6.40128 0.344272 -0.346557
lowerneck -5.8766 -6.23736 -3.19531
upperneck 10.3444 -7.81094 -2.45017
head 4.50766 -4.09647 -0.715688
rclavicle 4.37326e-015 1.82882e-014
rhumerus -20.3054 -11.4783 -74.3552
rradius 133.239
rwrist -43.3078
rhand -15.8609 -39.9923
rfingers 7.12502
rthumb 10.3344 -69.7184
lclavicle 4.37326e-015 1.82882e-014
lhumerus -53.3159 -19.1329 107.994
lradius 101.929
lwrist 21.0052
lhand -8.55667 -15.3185
lfingers 7.12502
lthumb 17.3731 13.9251
rfemur 26.7702 -0.565012 18.6263
rtibia -22.2537
rfoot -6.74651 -17.2291
rtoes -2.38772
lfemur 28.4877 2.67328 -13.143
ltibia -29.7936
lfoot 6.69018 14.5604
ltoes -17.8035
609
root -0.819916 17.8356 6.16516 -4.27226 -0.429035 -3.14484
lowerback 14.4815 -0.232332 6.52425
upperback 1.43592 0.978915 3.45053
thorax -6.56161 0.346289 -0.212377
lowerneck -6.15665 -6.20478 -2.79836
upperneck 10.3831 -7.89188 -1.58241
head 4.60008 -4.07722 -0.512064
rclavicle -1.98785e-015 -5.32743e-014
rhumerus -20.8664 -11.2668 -74.5025
rradius 133.22
rwrist -43.1717
rhand -15.8001 -40.1056
rfingers 7.12502
rthumb 10.393 -69.8287
lclavicle -1.98785e-015 -5.32743e-014
lhumerus -53.38 -18.7366 108.229
lradius 101.679
lwrist 20.7641
lhand -8.68009 -15.3573
lfingers 7.12502
lthumb 17.2544 13.8967
rfemur 26.9068 -0.665108 18.5016
rtibia -22.2444
rfoot -6.84657 -17.3709
rtoes -2.02065
lfemur 28.4036 2.59017 -13.2539
ltibia -29.5657
lfoot 6.68785 14.4638
ltoes -17.8673
610
root -0.829698 17.8467 6.15663 -4.40752 -0.22055 -3.02245
lowerback 14.66 -0.282422 6.76233
upperback 1.36486 0.994662 3.73792
thorax -6.73904 0.345967 -0.0416821
lowerneck -6.58626 -6.20688 -2.48299
upperneck 11.23 -8.00102 -0.803809
head 4.51141 -4.08196 -0.314191
rclavicle 4.57205e-015 2.38542e-014
rhumerus -21.4661 -11.0244 -74.7285
rradius 133.225
rwrist -42.9139
rhand -15.8708 -40.3701
rfingers 7.12502
rthumb 10.3248 -70.0967
lclavicle 4.57205e-015 2.38542e-014
lhumerus -53.4384 -18.2442 108.5
lradius 101.45
lwrist 20.7347
lhand -8.77288 -15.4741
lfingers 7.12502
lthumb 17.1651 13.7878
rfemur 27.0071 -0.674155 18.427
rtibia -22.1547
rfoot -6.87791 -17.5178
rtoes -2.36279
lfemur 28.3462 2.54482 -13.3352
ltibia -29.3608
lfoot 6.70678 14.3222
ltoes -18.1743
